<svg xmlns="http://www.w3.org/2000/svg" width="382" height="394" viewBox="0 0 382 394">
    <g fill="none" fill-rule="evenodd">
        <path fill="#F7C4AF" fill-rule="nonzero" d="M210.614 315.622c-3.494-3.199-5.129-8.227-3.865-13.255 1.858-7.313 3.568-14.93 5.204-22.244l2.453-10.97c1.635-7.084 8.549-11.426 15.463-9.75 6.913 1.676 11.225 8.76 9.515 15.845l-2.453 10.741c-1.71 7.542-3.42 15.388-5.427 23.082-1.784 7.009-8.846 11.198-15.76 9.37-1.859-.457-3.643-1.447-5.13-2.819zM24.693 287.73c3.924-1.283 7.034-4.755 7.7-9.208.963-6.566 2.222-13.284 3.406-19.774l1.777-9.736c1.11-6.265-2.961-12.303-9.107-13.435-6.145-1.132-12.068 3.02-13.179 9.284-.592 3.17-1.185 6.34-1.703 9.51-1.258 6.716-2.517 13.585-3.554 20.528-.962 6.34 3.258 12.227 9.477 13.208 1.777.302 3.554.151 5.183-.377z"/>
        <path fill="#0091CD" fill-rule="nonzero" d="M142.242 393.993v-48.146-19.816a234.409 234.409 0 0 0 22.386 22.604c3.857 3.39 7.94 6.706 12.63 8.89 6.806 3.165 14.747 3.467 21.932 1.357 7.563-2.26 11.42-6.178 15.428-12.507 8.924-14.165 14.899-29.837 20.722-45.434.984-2.712 1.967-5.35 3.026-7.911a165.47 165.47 0 0 1-6.505-2.411c-6.957-2.638-14.293-4.898-21.327-7.836a880.309 880.309 0 0 1-2.95 7.836c-3.1 8.363-5.974 17.48-10.058 25.617-.983 1.356-1.815 2.863-2.874 4.22-3.1 3.767-8.546 5.35-13.159 3.993-4.386-1.356-7.638-4.898-10.664-8.288-6.126-6.932-11.722-15.22-18.453-21.55-5.899-5.5-14.067-10.02-21.025-14.164-4.084-2.487-9.983-4.898-15.73-6.48-.303-.753-.908-1.808-2.27-3.089-1.89-1.884-3.856-2.562-12.024-3.39-5.067-.528-6.126 0-10.89.527-3.782.377-5.219 3.24-7.337 5.952-2.268 2.863-4.688 3.843-8.243 4.898-8.924 2.637-17.092 7.836-23.294 14.767-1.36 1.507-3.781 4.37-5.672 7.309-2.571 3.39-4.689 8.062-6.277 11.377-2.874 5.877-5.596 11.905-8.016 17.933.605-1.507.226-4.521.453-6.179.303-2.863.227-5.726.303-8.59.227-5.8.605-11.603 1.059-17.404.907-11.754 2.268-23.508 3.857-35.187l-32.899-6.63C1.346 267.487.741 278.714.363 290.317c-.605 20.118 0 40.16 2.42 60.126.983 8.213 5.824 18.234 13.689 22.001 7.26 3.466 16.184 1.281 22.688-3.39 8.773-6.254 14.445-15.748 20.42-24.638-.076 2.938-.076 5.877-.076 8.74v40.837h82.738z"/>
        <path fill="#DAE7EC" fill-rule="nonzero" d="M82.129 310.313l-.975-.974z"/>
        <path fill="#F16574" fill-rule="nonzero" d="M265.522 207.565h.525c.9-.223 1.725-.52 2.624-.743 6.749-1.857 11.623-3.268 13.497-6.76 1.65-3.12.6-6.388-2.474-7.577-2.625-1.04-5.099.074-6.599 1.04-.075-1.56-.75-3.937-3.374-4.977-3.074-1.263-6.673.148-8.323 3.268-1.875 3.492.075 7.578 2.774 13.223.3.669.675 1.412 1.05 2.155l.3.371zM283.716 183.811l.288.073h1.586c4.108.072 7.135.144 8.793-1.52 1.514-1.52 1.441-3.546-.072-4.776-1.297-1.085-2.883-.868-3.892-.579.216-.94.288-2.388-1.009-3.4-1.514-1.231-3.82-1.086-5.261.433-1.658 1.665-1.298 4.342-.721 8.105.072.434.144.94.216 1.447l.072.217z"/>
        <path fill="#9BD0EC" fill-rule="nonzero" d="M270.763 129.601l-48.9-6.83c-4.1-.607-7.896 2.505-8.428 6.906l-2.885 25.195c-.456 4.401 2.505 8.423 6.606 8.954l18.223 2.808c2.126.304-2.505 3.491-2.885 4.477-.38.987.531 1.366 1.443 1.594h.303c2.354.38 6.758-.607 10.403-3.567.835-.758 1.822-1.062 2.885-.91 23.463 3.339 18.528 2.428 18.528 2.428 4.024.531 7.896-2.58 8.352-6.906l2.885-25.27c.608-4.25-2.354-8.348-6.53-8.879zm-12.984 27.016l-.152 1.062c-.152.911-1.063 1.366-1.898 1.29l-27.943-4.021c-.911-.152-1.519-.911-1.367-1.746l.152-1.062c.152-.835 1.063-1.366 1.899-1.29l27.942 4.022c.835.076 1.443.91 1.367 1.745zm7.441-7.285l-.152 1.062c-.151.835-1.063 1.366-1.898 1.29l-39.18-5.767c-.912-.152-1.52-.987-1.367-1.745l.152-1.139c.152-.835 1.063-1.366 1.898-1.29l39.18 5.843c.836.076 1.443.835 1.367 1.746zm.836-8.272l-.152 1.138c-.152.835-1.063 1.366-1.899 1.29l-39.18-5.843c-.911-.152-1.519-.91-1.367-1.745l.152-1.063c.152-.91 1.063-1.366 1.898-1.29l39.18 5.768c.836.152 1.52.91 1.368 1.745z"/>
        <path fill="#D5AB99" fill-rule="nonzero" d="M100.221 281.3c-5.77-.225-8.277-3.901-8.125-8.252l.608-17.479c.152-4.35 3.872-7.801 8.353-7.651 4.404.15 7.897 3.826 7.745 8.251l-.607 17.48c-.152 4.35-4.253 7.8-7.974 7.65"/>
        <path fill="#897563" fill-rule="nonzero" d="M155.997 130.874c.679 11.666-.83 32.724-.83 32.724-4.906 6.136-46.264 3.409-64.302-.379-10.717-2.197-17.962-12.65-16.754-24.012.603-5.53 1.735-11.514 3.849-17.347 7.773-20.83 73.131-20.3 78.037 9.014"/>
        <path fill="#897563" fill-rule="nonzero" d="M142.544 193.644c-5.763-.226-10.28-5.134-10.046-10.947l1.402-34.426c.234-5.813 5.062-10.418 10.825-10.267 5.763.226 10.28 5.133 10.046 10.947l-1.402 34.426c-.156 5.888-5.062 10.494-10.825 10.267"/>
        <path fill="#F7C4AF" fill-rule="nonzero" d="M148.8 147.333c.681 11.633 1.97 87.777-10.233 102.432-7.806 9.367-24.784 20.698-46.839 7.327-9.55-5.816-15.84-15.712-17.735-26.665-3.41-19.565-3.714-27.723-3.714-27.799 0 .151-4.017-.453-4.244-.453-2.729-.68-5.382-2.04-6.973-4.457-5.609-8.46 3.259-18.81 7.958-25.381 1.819-2.569 3.562-5.137 5.002-7.932 1.289-2.568 1.137-4.155 1.213-6.874.227-6.27 2.35-13.144 4.623-18.885 8.11-20.774 65.712-20.547 70.941 8.687"/>
        <g fill-rule="nonzero">
            <path fill="#D5AB99" d="M140.02 192.041c-9.117-7.762-35.938-8.567-43.548-1.245-.301.293-.226.586.15.88l43.096 1.464c.678-.22.829-.66.302-1.099z"/>
            <path fill="#C8A491" d="M76.205 198.705s-1.732-6.151 2.713-8.64c-.98-.806-6.63 1.39-6.254 4.832-1.356 1.172-3.767.806-5.123-1.245 1.356 4.1 7.308 5.126 8.664 5.053"/>
        </g>
        <path fill="#897563" fill-rule="nonzero" d="M146.392 231.991c-.675 19.432-15.591 34.673-34.78 33.987-19.115-.686-34.106-16.994-33.431-36.502.674-19.431 16.715-32.31 35.904-31.624 19.19.61 33.056 14.631 32.307 34.14"/>
        <path fill="#4F5253" fill-rule="nonzero" d="M139.455 215.584c-.448 13.728-11.133 24.432-23.835 23.967-12.703-.466-22.64-11.945-22.118-25.673 0-1.862 46.028.155 45.953 1.706"/>
        <path d="M93.497 213.846c-.454 13.745 9.774 25.239 22.805 25.705 13.106.466 24.092-10.251 24.546-23.996 0-.777-12.88-1.709-25.228-2.175-11.213-.388-22.047-.388-22.123.466"/>
        <path fill="#F7C4AF" fill-rule="nonzero" d="M143.727 203.471c.076.154.303.386.53.694.757.849 3.332 1.543 4.392 1.774 1.894.463 4.09.309 5.529-1.08.757-.77 1.211-1.774 1.514-2.776.758-2.391.682-5.168-.681-7.25-1.742-2.623-5.756-3.626-7.952-1.158-1.818 2.006-2.348 5.014-3.03 7.56-.302 1.388-.53 1.696-.302 2.236"/>
        <path fill="#897563" fill-rule="nonzero" d="M93.818 128.595c-2.632 1.435-5.113 3.172-7.218 5.288-6.09 6.043-8.27 14.428-8.872 22.737-.3 4.381-.3 8.763-.225 13.144.075 4.532 1.203 8.158-1.203 10.047-3.233-.076-6.542-.076-9.474 1.208-5.639 2.493-7.142 10.878-4.21 15.94 2.03 3.398 4.812 4.23 8.345 4.985.15 1.435.376 2.795.527 4.23-4.662-1.209-8.346-2.493-11.353-6.572-2.557-3.55-3.76-8.007-4.06-12.389-.602-7.78.3-11.482.376-19.262.15-8.46-.15-16.92-.15-25.381 0-5.213 4.736-9.518 10.6-9.518 5.79 0 10.602 4.305 10.602 9.518-.076 7.931.3 13.144-8.421 16.618-3.083-4.305-1.278-10.273.827-15.183 3.684-8.385 8.345-16.543 14.736-23.04 6.466-6.496 14.887-11.33 23.985-12.086 9.097-.755 18.796 2.946 23.984 10.5.902 1.284 1.654 2.87 1.053 4.306-.903 2.266-4.136 2.04-6.542 1.51-11.052-2.266-23.232-1.963-33.307 3.4z"/>
        <path d="M192.074 258.608c-1.44-6.236 2.349-12.549 8.485-14.088 4.622-1.155 9.243.77 11.895 4.388.984-.54 1.97-1.155 2.197-2.233.303-1.693-1.591-2.925-3.182-3.618-3.106-1.309-6.213-2.617-9.47-3.233-3.258-.54-6.819-.308-9.698 1.385-3.03 1.771-5.075 4.927-6.818 8.084-1.742 3.079-3.409 6.235-4.015 9.7-.606 3.464 0 7.313 2.348 9.93 1.97 2.156 5.758 3.31 8.561 2.233.985-.385 1.667-1.078 2.273-1.925l-.227-.924c-.758-3.233-1.591-6.466-2.349-9.7z"/>
        <path fill="#E2ECF0" fill-rule="nonzero" d="M83.731 315.113l-1.393.557c.127-.14 1.393-.557 1.393-.557zM83.731 315.113l-1.393.557 1.393-.557z"/>
        <path fill="#F7C4AF" fill-rule="nonzero" d="M218.532 264.742c2.234-2.167 4.765-4.013 7.296-5.699-4.318.803-8.04 3.934-9.752 8.348a39.848 39.848 0 0 1 2.456-2.649z"/>
        <path fill="#D5AB99" fill-rule="nonzero" d="M222.345 281.295c3.483-.075 5.34-3.662 6.733-6.202 1.548-2.69 3.25-5.38 5.495-7.547 1.161-1.12 2.4-2.092 3.793-2.84-1.78-2.54-4.567-4.483-7.972-5.305-1.78-.448-3.638-.448-5.34-.15-2.71 1.57-5.263 3.289-7.585 5.306-.851.747-1.703 1.644-2.554 2.466a8.338 8.338 0 0 0-.697 1.943c-.774 3.213-1.548 6.5-2.321 9.713 2.244.673 4.488 1.27 6.733 1.943 1.238.374 2.477.747 3.715.673z"/>
        <path fill="#A5A8A9" fill-rule="nonzero" d="M198.61 173.478c.14 0 .14 0 0 0z"/>
        <path fill="#FFF" fill-rule="nonzero" d="M198.631 173.53c.14-.139 0-.139 0 0z"/>
        <g fill-rule="nonzero">
            <path fill="#EF946D" d="M381.627 231.774v48.898c0 4.182-2.282 8.06-6.01 10.038l-45.946 24.943c-3.424 1.901-7.607 1.901-11.107 0l-45.946-24.943c-3.728-1.977-6.01-5.856-6.01-10.038v-48.898c0-4.183 2.282-8.061 6.01-10.038l45.946-24.943c3.423-1.902 7.607-1.902 11.107 0l45.946 24.943c3.652 1.977 6.01 5.855 6.01 10.038"/>
            <path fill="#F2AD80" d="M272.541 221.736l46.023-25.02a11.396 11.396 0 0 1 5.401-1.368h.229c1.901 0 3.727.456 5.4 1.368l16.356 8.898-.685-.38 18.333 9.962 12.02 6.54c.38.228.684.38 1.064.608.837.609 1.294 1.521 1.294 2.434v.076c0 1.064-.533 2.053-1.598 2.661-3.423 1.825-7.53 3.955-11.943 6.312-11.563 6.16-24.951 13.232-32.71 17.415h-.077s-.076 0-.076.076a14.843 14.843 0 0 1-6.922 1.749h-.38c-2.435 0-4.869-.684-7.075-1.825l-.38-.228-31.037-16.807-13.237-7.148c-1.065-.608-1.521-1.597-1.521-2.662 0-1.064.456-2.053 1.521-2.661z"/>
            <path fill="#FFF" d="M356.524 211.317l-51.729 29.735s-2.814 1.9-2.434 6.768c.228 2.813.609 5.247.609 5.247s-.228 3.194-2.587 2.205c-2.358-.988-9.585-4.486-11.182-5.475-1.598-.989-1.902-1.521-1.978-3.802 0-2.738.076-6.388.076-8.29 0-1.9.457-3.117 3.195-4.866 4.336-2.586 36.058-20.077 52.109-28.974l13.92 7.452"/>
            <path fill="#F9C1B3" d="M302.97 243.485a8.918 8.918 0 0 0-.685 3.498v.913c.076.684.076 1.369.152 1.977.228 1.901.38 3.27.38 3.27s-.152 2.357-1.673 2.357c-.228 0-.532-.076-.837-.228-2.206-.988-8.824-4.106-10.878-5.323h-.076-.076c-.076 0-.152-.076-.152-.076-1.598-.989-1.902-1.521-1.978-3.802 0-2.738.076-6.388.076-8.29 0-.912.076-1.672.533-2.357l15.214 8.061z"/>
            <path fill="#ED856B" d="M328.15 316.338a6.185 6.185 0 0 1-3.804-5.704c0-13.46-.076-33.46-.152-45.248v-2.661-.076-1.597c0-4.03 2.434-7.605 6.161-9.202.38-.152.761-.38 1.141-.532 0 0 .076 0 .076-.076h.076c8.14-4.335 21.376-11.407 32.71-17.415 4.87-2.585 9.434-4.943 13.161-6.92a3.535 3.535 0 0 1 1.75-.456h.152c.304 0 .608.076.913.152.837 1.597 1.217 3.346 1.217 5.17v48.899c0 4.182-2.282 8.06-6.01 10.038l-45.946 24.943c-.457.228-.913.456-1.446.685"/>
            <path fill="#FFF" d="M288.668 271.09c.99.532 1.75 1.901 1.75 3.042l.076 19.468c0 1.14-.76 1.673-1.75 1.14l-16.279-8.973c-.989-.532-1.75-1.901-1.75-3.042l-.075-19.468c0-1.14.76-1.673 1.75-1.14l16.278 8.973z"/>
            <path fill="#FFF" d="M273.074 279.835v.76c.228.077.38.229.609.305v-.76c-.153-.077-.38-.153-.609-.305zM274.367 281.28c-.228-.076-.38-.228-.608-.38v.684c.228.076.38.228.608.38v-.684zM277.486 283.03c-.228-.077-.38-.229-.609-.305v.684c.229.076.38.229.61.305v-.685z"/>
            <path fill="#000" d="M272.465 278.01c.457.228.837.456 1.218.685v-.76c.38.227.836.455 1.293.684v-.76c.684.38 1.293.683 1.901 1.064v-1.445c.229.152.38.228.61.38v.76c.227.153.38.229.608.38v1.446c.456.228.836.456 1.293.684v-1.445c.228.076.38.228.608.304v.76c.229.153.457.229.609.381v.76c-.228-.152-.456-.228-.609-.38v3.042c-.228-.152-.38-.228-.608-.38v1.52c-.228-.075-.38-.227-.609-.38v.761c-.228-.152-.38-.228-.608-.38v.76a2.278 2.278 0 0 0-.609-.304v-.76c-.228-.152-.38-.228-.608-.38v-.685c-.229-.152-.38-.228-.609-.38v.76c-.456-.228-.837-.456-1.217-.684v.684l-2.51-1.369v-1.444c.228.076.38.228.608.304v-.76a2.278 2.278 0 0 0-.608-.305c-.153-1.14-.153-2.13-.153-3.118zm.685 2.586c.228.076.38.228.609.304v.684c.228.076.38.228.608.38v-.684c.228.076.38.228.609.304v-2.205c-.228-.076-.38-.228-.609-.304v.684c-.228-.152-.38-.228-.608-.38v.76c-.229-.076-.38-.228-.609-.304-.076.228 0 .457 0 .76m2.51.61c.609.303 1.217.684 1.826.988v-2.206c-.609-.304-1.217-.684-1.826-.988v2.205m-1.901 1.977c.38.228.836.457 1.217.685v-.76c.228.075.38.227.608.303v-.76c-.152-.076-.38-.228-.608-.304v.76c-.38-.228-.837-.456-1.217-.684v.76m3.118.228c.229.076.38.229.61.305v.684c.227.076.38.228.608.304v-.684c-.229-.076-.38-.228-.609-.304v-.685c-.228-.076-.38-.228-.609-.304v.684m1.294-.076c.152.076.38.229.608.305v-.685c-.228-.076-.38-.228-.608-.304v.684"/>
            <path fill="#FFF" d="M278.095 284.854v-.684c-.229-.076-.38-.228-.609-.304v.684c.228.076.38.152.609.304zM278.17 282.649v.684c.153.076.381.229.61.305v-.685c-.229-.152-.457-.228-.61-.304z"/>
            <path fill="#000" d="M273.683 271.85c.38.229.836.457 1.217.685v.76c.228.076.38.228.608.304v-1.444c-.608-.305-1.217-.685-1.825-.989v.684zM278.78 278.466v.76c.227.153.456.229.608.381v-.76c-.228-.228-.457-.305-.609-.38zM282.507 284.322c-.152-.076-.38-.228-.609-.304v.684c.228.076.38.228.609.304v-.684zM278.095 274.36v.76c.228.076.38.229.608.38v-.76a1.656 1.656 0 0 0-.608-.38z"/>
            <path fill="#FFF" d="M281.214 279.075c.076 0 0 0 0 0zM273.683 273.447c-.229-.076-.38-.228-.609-.304v.685c.228.076.38.228.609.304v-.685zM274.976 275.653v.684c.152.076.38.228.608.304v-.684a2.278 2.278 0 0 0-.608-.304z"/>
            <path fill="#000" d="M273.074 272.307c.685.38 1.293.684 1.902 1.064v1.445c.456.228.837.456 1.293.685v-.685c.228.152.38.228.608.304v.685c.457.228.837.456 1.218.684v-.684c.228.076.38.228.608.38v2.281c-.228-.076-.38-.228-.608-.38v-.684c-.609-.38-1.294-.685-1.902-1.065v1.445c-.609-.38-1.217-.684-1.902-1.065v-2.205c-.228-.152-.456-.228-.608-.304v.684c-.457-.228-.837-.456-1.218-.684v-3.726c.229.152.38.228.609.38v1.445zm0 1.52c.228.077.38.229.609.305v-.685c-.229-.076-.38-.228-.609-.304v.685m1.902 2.51c.152.075.38.227.608.303v-.684c-.228-.076-.38-.228-.608-.304v.684"/>
            <path fill="#FFF" d="M278.095 273.6v.684c.228.152.456.228.608.38v-.684c-.152-.152-.38-.228-.608-.38zM278.703 272.383c-.228-.076-.38-.228-.608-.304v.76c.152.076.38.228.608.304v-.76z"/>
            <path fill="#000" d="M285.093 286.451v2.206c.609.304 1.217.684 1.826.988v-2.205c-.609-.304-1.217-.608-1.826-.989z"/>
            <path fill="#FFF" d="M276.193 270.938a62.317 62.317 0 0 0-3.119-1.673v-3.726a62.317 62.317 0 0 0 3.119 1.673v3.726zm-2.51-2.053c.608.304 1.217.684 1.825.988v-2.205c-.608-.304-1.217-.685-1.825-.989v2.206"/>
            <path fill="#000" d="M284.409 282.345c0-.076 0-.076 0 0 0-.076 0 0 0 0z"/>
            <path fill="#FFF" d="M280.605 275.729v.684c.228.076.38.228.609.304v-.684c-.153-.076-.38-.152-.609-.304z"/>
            <path fill="#000" d="M284.409 281.584c-.229-.076-.38-.228-.61-.304v.685c.23.076.381.228.61.304v-.685z"/>
            <path fill="#FFF" d="M287.527 290.786a62.317 62.317 0 0 0-3.118-1.673v-3.726a62.317 62.317 0 0 0 3.118 1.673v3.726zm-2.434-2.13c.609.305 1.217.685 1.826.99v-2.206c-.609-.304-1.217-.685-1.826-.989v2.206M279.388 274.284v.76c-.228-.152-.457-.228-.609-.38v.76c-.228-.152-.456-.228-.608-.38v.76c.228.153.38.229.608.381v2.281c.228.153.38.229.609.38v.761c.228.152.38.228.608.38v.76c.229.153.457.229.609.381v-1.52a2.278 2.278 0 0 0-.609-.305v-.76c-.228-.077-.38-.229-.608-.305v-2.281c.152.076.38.228.608.304v-1.52c-.228-.229-.38-.305-.608-.457zM281.214 275.272v-1.444c-.229-.076-.38-.229-.609-.305v1.445c.228.076.38.152.609.304z"/>
            <path fill="#000" d="M288.212 291.927c-1.445-.837-2.89-1.597-4.336-2.434v-5.247c1.445.836 2.89 1.597 4.336 2.433v5.248zm-3.727-2.89c.988.532 2.053 1.14 3.118 1.673v-3.726a62.317 62.317 0 0 0-3.118-1.673v3.726"/>
            <path fill="#FFF" d="M286.31 283.333v-.76c-.228-.076-.38-.228-.608-.304v.76c.152.076.38.152.608.304z"/>
            <path fill="#000" d="M279.388 268.96c-.076 0 0 0 0 0zM279.312 268.96c.076 0 0 0 0 0zM276.269 280.063v.685c.228.076.38.228.608.304v-.684a2.278 2.278 0 0 1-.608-.305z"/>
            <path fill="#FFF" d="M277.486 282.193c-.609-.38-1.217-.685-1.826-.989V279c.609.38 1.217.684 1.826.988v2.206zm-1.217-1.37c.228.077.38.229.608.305v-.684c-.152-.076-.38-.228-.608-.305v.685"/>
            <path fill="#000" d="M281.29 283.638c-.229-.076-.38-.229-.609-.305v.685c.228.076.38.228.609.304v-.684z"/>
            <path fill="#FFF" d="M281.29 279.075c-.076 0 0 0 0 0z"/>
            <path fill="#000" d="M277.486 270.253c.228.153.38.229.609.305v.76c.228.152.38.228.608.38v.76c-.228-.075-.38-.227-.608-.303v.76c.152.076.38.228.608.304v-.76c.228.076.38.228.609.304v.76c.228.153.38.229.608.38v-.76c.229.152.457.228.685.38v1.445c.228.076.38.228.609.304v-1.444c-.229-.076-.38-.229-.609-.38v-.761c-.228-.076-.38-.228-.609-.304v-1.521c.229.076.38.228.609.304v.76c.228.153.456.229.609.38v.761c.228.152.456.228.684.38v3.727l2.51 1.368v.76a17.417 17.417 0 0 1-1.217-.683v.76c-.228-.076-.38-.228-.608-.304v3.042c.608.38 1.217.684 1.902 1.064v.76c-.457-.227-.837-.456-1.294-.684v.685a17.416 17.416 0 0 1-1.217-.685v-.76a2.278 2.278 0 0 0-.608-.304v-.76c-.229-.153-.38-.229-.609-.381v-1.52a2.278 2.278 0 0 0-.608-.305v-.76c-.229-.077-.38-.229-.609-.305v-2.281c.152.076.38.228.609.304v-1.52c-.229-.077-.38-.229-.609-.305v.76c-.228-.152-.456-.228-.609-.38v-.684c-.228-.152-.38-.228-.608-.38v.684c-.38-.228-.837-.456-1.217-.684v-.761c.228.152.38.228.608.38-.228-1.14-.228-2.053-.228-3.042zm2.51 7.377c.153.076.38.228.609.38v.76c.228.153.456.229.609.38v2.206c.228.076.38.228.608.304v-2.205c-.228-.152-.38-.228-.608-.38v-1.445c-.38-.228-.761-.456-1.218-.684v.684m1.218-1.521c-.229-.076-.38-.228-.609-.304v.684c.228.076.38.228.609.304v-.684M287.527 284.018c.076 0 .076 0 0 0z"/>
            <path fill="#FFF" d="M278.095 270.558v.76c.228.152.38.228.608.38v.76c.228.077.38.229.609.305v.76c.228.153.38.229.608.38v-.76c.229.152.457.228.609.38v-.76c-.228-.076-.38-.228-.609-.304v-1.521c.229.076.38.228.609.304v.76c.228.153.456.229.685.38v-1.52c-.685-.38-1.294-.685-1.902-1.065v.76c-.228-.075-.38-.228-.609-.304v.76c-.228-.227-.38-.38-.608-.455z"/>
            <path fill="#000" d="M285.017 282.649c-.228-.152-.456-.228-.608-.304v.76c.608.304 1.217.685 1.901 1.065v.76c.228.152.38.229.609.38v-1.52c.228.152.456.228.608.38v-2.966c-.228-.076-.38-.228-.608-.38v1.52c-.457-.227-.837-.455-1.217-.684v.76c.228.153.38.229.608.381v.76a2.278 2.278 0 0 0-.608-.304v-.76c-.229-.152-.38-.228-.685-.38v.532zM279.996 268.58v.76c-.228-.151-.456-.227-.608-.38v.761c.608.38 1.217.685 1.902 1.065v1.52c.38.229.836.457 1.217.685v.76c.228.153.38.229.608.38v-2.205c-.152-.076-.38-.228-.608-.304v-.76c-.228-.076-.38-.228-.609-.304v-.76a2.278 2.278 0 0 0-.608-.305v.684c-.229-.152-.38-.228-.609-.38v-.76c-.304-.228-.456-.305-.685-.457zM283.115 270.33c-.152-.077-.38-.229-.608-.305v.685c.228.076.38.228.608.304v-.685z"/>
            <path fill="#000" d="M285.702 277.782v1.445c-.229-.152-.38-.228-.609-.38v1.52c.38.229.837.457 1.293.685v-2.205c.457.228.837.456 1.217.684v1.445c.229.076.38.228.609.304v-2.205c-.837-.38-1.674-.837-2.51-1.293z"/>
            <path fill="#FFF" d="M287.527 277.25a62.317 62.317 0 0 0-3.118-1.673v-3.727a62.317 62.317 0 0 0 3.118 1.673v3.727zm-2.51-2.13c.609.38 1.217.685 1.826.989v-2.205c-.609-.305-1.217-.685-1.826-.989v2.205"/>
            <path fill="#000" d="M283.8 276.717v.685c.152.076.38.228.609.304v-.684c-.229-.076-.38-.229-.61-.305zM288.136 278.314c-1.445-.836-2.89-1.597-4.336-2.433v-5.247c1.445.836 2.89 1.597 4.336 2.433v5.247zm-3.727-2.813a62.317 62.317 0 0 0 3.118 1.673v-3.727c-1.065-.532-2.054-1.14-3.118-1.673v3.727"/>
            <path fill="#FFF" d="M274.976 283.105c-.38-.228-.837-.456-1.217-.684v.76c.38.228.836.457 1.217.685v-.76z"/>
            <path fill="#000" d="M273.683 280.14v.76c.228.152.456.228.608.38v-.76c-.152-.152-.38-.228-.608-.38z"/>
            <path fill="#FFF" d="M275.584 282.725c-.152-.076-.38-.228-.608-.304v.76c.228.076.38.228.608.304v-.76zM274.367 279.075v.684c-.228-.152-.38-.228-.608-.38v.76c.228.077.38.229.608.38v.761c.228.076.38.228.609.304v-2.205c-.228-.076-.38-.228-.609-.304z"/>
            <path fill="#000" d="M273.074 276.033a2.278 2.278 0 0 0-.609-.304v.76c.153.076.38.228.609.304v.76c.228.153.456.229.609.381v-2.205a2.278 2.278 0 0 0-.609-.304v.608zM274.976 273.371c0-.076 0 0 0 0zM274.976 273.295c0 .076 0 .076 0 0z"/>
            <path fill="#FFF" d="M282.507 286.527c-.152-.076-.38-.228-.609-.304v1.445c.228.076.38.228.609.304v-1.445z"/>
            <path fill="#000" d="M281.898 284.702v.76c.457.229.837.457 1.217.685v2.966c-.38-.228-.836-.456-1.217-.684v-.76c-.228-.077-.38-.23-.608-.381v.684c-.457-.228-.837-.456-1.294-.684v-.685c-.228-.152-.38-.228-.608-.38v-.684c.608.38 1.293.684 1.902 1.064v-2.281c.228.152.38.228.608.38zm0 3.042c0-.076 0-.076 0 0 .228.076.38.228.609.304v-1.445c-.152-.076-.38-.228-.609-.304v1.445c0-.076 0-.076 0 0M276.877 273.6c-.228-.077-.38-.229-.608-.305v.685c.152.076.38.228.608.304v-.685zM277.486 274.74v.76c.228.077.38.229.609.305v-.76c-.153-.077-.38-.153-.609-.305zM273.683 266.68v2.205c.608.304 1.217.684 1.825.988v-2.205a39.65 39.65 0 0 0-1.825-.989z"/>
            <path fill="#FFF" d="M281.214 277.554c-.38-.228-.761-.456-1.218-.685v.685c.153.076.38.228.609.38v.76c.228.153.456.229.609.38v-1.52z"/>
            <path fill="#000" d="M276.801 272.079c-1.445-.837-2.89-1.597-4.336-2.434v-5.247c1.446.836 2.891 1.597 4.336 2.433v5.248zm-3.727-2.814c.989.532 2.054 1.14 3.119 1.673v-3.726a62.317 62.317 0 0 0-3.119-1.673v3.726M278.095 269.037v1.52c.228.077.38.229.608.38v-.76c.228.152.38.229.609.305v-.76c-.38-.229-.76-.457-1.217-.685zM285.017 281.128v-.76c-.608-.38-1.217-.685-1.902-1.065v.76c.685.38 1.294.685 1.902 1.065zM279.312 268.276c-.38-.228-.837-.456-1.217-.684v.76c.38.228.836.457 1.217.685v-.76zM288.212 285.082v-.684c-.228-.076-.38-.228-.609-.304v.684c.153.076.38.228.609.304z"/>
            <path fill="#FFF" d="M283.191 280.063c.685.38 1.294.685 1.902 1.065v-.76c.38.228.837.456 1.293.684v-2.205c.457.228.837.456 1.217.684v1.521c-.228-.076-.38-.228-.608-.38v1.52c-.457-.227-.837-.456-1.217-.684v.76c-.228-.075-.38-.227-.609-.38v.761c-.228-.152-.456-.228-.608-.304v.76c-.609-.38-1.217-.684-1.902-1.064v-3.042c.228.152.38.228.608.38-.076.228-.076.456-.076.684zm.609 1.902c.228.076.38.228.609.304v-.685c-.229-.076-.38-.228-.61-.304v.685"/>
            <path fill="#000" d="M282.507 276.033v.684c.228.076.38.229.608.305v-.685c-.228-.076-.38-.228-.608-.304zM282.507 274.512v.684c.228.076.38.229.608.305v-.685c-.228-.076-.38-.228-.608-.304z"/>
            <path fill="#FFF" d="M281.898 279.455a2.278 2.278 0 0 0-.608-.304v2.205c.228.076.38.228.608.304v-2.205z"/>
            <path fill="#000" d="M285.017 272.915v2.205c.609.38 1.217.685 1.826.989v-2.205c-.533-.305-1.141-.609-1.826-.989z"/>
            <path fill="#F8DBCA" d="M334.54 302.953c-1.446 0-2.815-1.216-2.815-2.813v-9.354c0-1.065.608-2.053 1.52-2.51l13.237-6.54c.38-.228.837-.304 1.293-.304 1.446 0 2.815 1.14 2.815 2.738v9.43a2.71 2.71 0 0 1-1.521 2.433l-13.237 6.54c-.38.228-.836.304-1.217.304h-.076m12.932-11.483c-.076 0-.228 0-.304.076l-11.791 5.476c-.38.152-.533.684-.38 1.064.152.305.38.457.684.457l.304-.076 11.791-5.476c.38-.152.533-.684.38-1.064-.075-.305-.38-.457-.684-.457m0-4.715c-.076 0-.228 0-.304.076l-11.791 5.476c-.38.152-.533.684-.38 1.064.152.305.38.457.684.457l.304-.076 11.791-5.476c.38-.152.533-.684.38-1.064-.075-.304-.38-.457-.684-.457"/>
        </g>
        <g fill="#4B423F" fill-rule="nonzero">
            <path d="M104.79 188.922c.302-3.785-.604-6.901-2.113-7.05-1.509-.148-2.943 2.82-3.245 6.605-.075.816-.075 1.558-.075 2.226l5.131.148c.151-.594.227-1.261.302-1.93zM134.823 190.332c.302-3.785-.604-6.901-2.113-7.05-1.509-.148-2.943 2.82-3.245 6.604-.075.668-.075 1.336-.075 1.93l5.207.148c.15-.52.226-1.113.226-1.632z"/>
        </g>
        <path d="M112.805 224.535c9.623.378 17.894 2.568 22.555 5.665 3.007-3.928 4.812-8.761 5.037-14.124 0-.227-.902-.378-2.33-.604l-.15 3.248-41.427-1.511.15-3.323c-1.503.075-2.48.302-2.48.528a25.038 25.038 0 0 0 2.405 11.632c4.511-1.133 10.15-1.662 16.24-1.51z"/>
        <path fill="#F16574" fill-rule="nonzero" d="M116.414 239.414c7.668.302 14.51-3.399 18.946-9.214-4.661-3.097-13.007-5.363-22.555-5.665-6.09-.226-11.729.378-16.315 1.51 3.684 7.705 11.127 13.067 19.924 13.37z"/>
        <path fill="#FFF" fill-rule="nonzero" d="M137.916 218.72l.15-3.248c-7.894-1.133-33.456-2.19-41.426-1.586l-.15 3.323 41.426 1.51z"/>
        <path fill="#A5A8A9" fill-rule="nonzero" d="M197.484 172.387c-.23.227-.46.53-.612.983-.841 1.967-.765 5.07-1.07 7.188-.69 4.69-1.225 9.381-1.684 13.996-.918 9.382-1.53 18.763-1.682 28.22-.153 8.247 0 16.569 2.294 24.513 2.907 10.062 9.179 18.914 17.057 25.875 1.53 1.361 3.213 2.723 5.201 3.48 2.677.983 7.802.605 9.255-2.27.077-.227.153-.378.23-.605l24.323-87.005c0-.152.077-.303.077-.379.23-1.664-.842-3.329-2.525-3.858l-45.51-12.483c-.918-.227-2.295.53-3.136.983-.994.454-1.683.757-2.218 1.362zm50.864 12.18c.689-.302 1.607-.378 1.607-.15-.077.226-1.224.832-1.836.832-.612.075-.382-.379.23-.681z"/>
        <path fill="#1D3355" fill-rule="nonzero" d="M223.524 275.277c.076-.15.152-.377.228-.602l.305-1.054 23.929-85.477c.533-1.806-.61-3.763-2.439-4.214l-45.342-12.415c-.914-.226-1.829-.15-2.59.3h-.077-.076c-.762.452-1.296 1.13-1.6 2.032l-24.234 86.531c-.533 1.806.61 3.762 2.439 4.214l45.342 12.415c.914.226 1.829.15 2.59-.3.23-.151.382-.227.61-.377.381-.226.686-.602.915-1.053zm-5.258-95.185l7.392 2.032c.38.075.61.451.457.828a.61.61 0 0 1-.838.451l-7.392-2.031c-.381-.076-.61-.452-.458-.828a.73.73 0 0 1 .839-.452zm-2.896-1.354c.686.15 1.067.828.838 1.505-.152.677-.838 1.053-1.524.828-.686-.15-1.067-.828-.838-1.505a1.305 1.305 0 0 1 1.524-.828zm-20.042 87.133c.381-1.505 1.981-2.333 3.505-1.956 1.524.376 2.363 1.956 1.982 3.46-.381 1.506-1.982 2.333-3.506 1.957-1.524-.451-2.438-1.956-1.981-3.461z"/>
        <path fill="#A5A8A9" fill-rule="nonzero" d="M227.22 274.348l5.065-18.826 18.618-68.826zM251.6 185.948c0 .139 0 .139 0 0 0 .139 0 .139 0 0zM225.828 275.74c-.48.198-1.153.33-1.73.397-.288.397-.672.728-1.057.993l.961-.463 1.826-.928zM197.339 172.017l-.14.14zM197.3 172.035c-.14.139 0 .139 0 0z"/>
        <path stroke="#FFF" stroke-linecap="round" stroke-linejoin="round" d="M198.592 172.087h.14"/>
        <path fill="#FFF" fill-rule="nonzero" d="M196.657 266.144c-.328 1.153.327 2.307 1.473 2.554 1.146.33 2.292-.33 2.537-1.483.328-1.154-.327-2.307-1.473-2.554-1.064-.248-2.21.412-2.537 1.483z"/>
        <path fill="#D8E5EB" fill-rule="nonzero" d="M197.233 270.084c1.491.374 2.982-.449 3.43-1.945.372-1.496-.448-2.992-1.939-3.44-1.49-.375-2.982.448-3.43 1.944-.446 1.496.448 2.992 1.94 3.441zm1.267-4.563c1.044.3 1.566 1.347 1.342 2.32-.298 1.046-1.342 1.57-2.31 1.346-1.044-.3-1.566-1.347-1.343-2.32.224-.972 1.268-1.57 2.311-1.346z"/>
        <path fill="#FFF" fill-rule="nonzero" d="M217.487 181.521c-.073.313.073.626.438.688l7.081 1.688c.365.063.73-.062.803-.375.073-.312-.073-.625-.438-.688l-7.08-1.688c-.293-.062-.658.063-.804.375z"/>
        <path fill="#696969" fill-rule="nonzero" d="M217.487 181.521c-.073.313.073.626.438.688l7.081 1.688c.365.063.73-.062.803-.375.073-.312-.073-.625-.438-.688l-7.08-1.688c-.293-.062-.658.063-.804.375z" opacity=".43"/>
        <path fill="#FFF" fill-rule="nonzero" d="M213.328 179.346c-.175.786.262 1.484.961 1.746.787.175 1.486-.262 1.748-.96.175-.786-.262-1.484-.961-1.746-.787-.174-1.486.262-1.748.96z"/>
        <path fill="#696969" fill-rule="nonzero" d="M213.328 179.346c-.175.786.262 1.484.961 1.746.787.175 1.486-.262 1.748-.96.175-.786-.262-1.484-.961-1.746-.787-.174-1.486.262-1.748.96z" opacity=".43"/>
        <path fill="#D0D2D1" fill-rule="nonzero" d="M248.573 185.293c.775 0 2.325-.846 2.325-1.163.097-.318-1.162-.318-2.034.211-.775.423-1.066 1.057-.29.952z"/>
        <path fill="#4BB595" fill-rule="nonzero" d="M177.577 257.215l21.378-78.189 44.152 12.059-21.38 78.19z"/>
        <path fill="#4BB595" fill-rule="nonzero" d="M208.646 185.5l-.65-.196-.279 1.171.65.195c.372.098.65-.097.743-.39 0-.39-.185-.683-.464-.78zM197.377 261.13s.14 0 0 0h-.278.278zM195.057 246.522c.14 0 .14 0 0 0v-1.392l-1.253 1.139c.418 0 .696.126.975.126.14.127.14.127.278.127zM208.445 222.143s-.14.14 0 0zM202.894 240.26c-.14 0-.14 0 0 0-.14 0-.14 0 0 0z"/>
        <path d="M209.17 205.97c-.435.222-1.017 0-1.162-.668.073 1.113 1.526 1.707 1.817 1.855 0 0-.073-1.707 1.09-2.078-.145-.222-1.671 0-1.744.89z"/>
        <path fill="#4BB595" fill-rule="nonzero" d="M220 225.634c-.072.074-.072.148-.145.222.727.52.8.52.8.52.073.074.363.296.872.667-.145-.296-.218-.445-.218-.593 0-.074-.073-.074-.073-.074-.145-.297-.218-.52-.218-.817-.218.075 2.69-3.19 2.472-3.116.29-.52.436-.965.508-1.262-1.599 1.188-2.834 2.746-3.997 4.453z"/>
        <path fill="#FFF" fill-rule="nonzero" d="M205.628 237.447c0 .14 0 0 0 0zM204.287 238.87c-.14 0-.14 0 0 0-.14 0-.14 0 0 0zM204.304 238.8s0 .14-.14.14c0 0 .14 0 .14-.14z"/>
        <path fill="#FFF" fill-rule="nonzero" d="M204.304 238.8s0 .14-.14.14l.14-.14zM219.489 225.096c0-.14.14-.279.14-.279s0 .14-.14.279z"/>
        <path fill="#DAB59E" fill-rule="nonzero" d="M228.27 209.724c.147-1.21.222-2.42.296-3.63.148-2.875 0-5.826-1.112-8.474-1.112-2.647-3.41-4.917-6.227-5.295-2.594-.378-5.188.983-7.412 2.42-1.78 1.135-3.558 2.497-4.967 4.161-1.408 1.665-2.372 3.707-2.52 5.901-.074 2.118.89 3.404 1.927 5.069.742 1.135.816 2.496 1.038 3.782.223 1.513.593 3.026.741 4.54.297 3.025.149 6.051-.37 9.002-.297 1.513-.593 3.253.37 4.463.668.757 1.705 1.06 2.669.908.964-.151 1.853-.681 2.668-1.286 2.002-1.589 3.41-3.934 4.819-6.128-.149-.076-.297-.227-.52-.378v-.076l-1.334-1.588-.89-.227c.15-.454.297-1.21.594-2.194 4.892.227 8.598-4.312 9.933-8.7.222-.757.148-1.437.296-2.27zm-18.384-3.63c-.37-.076-1.779-.682-1.853-1.892.222.68.741.832 1.186.68.074-.907 1.63-1.134 1.853-.907-1.26.378-1.186 2.118-1.186 2.118z"/>
        <path fill="#FFF" fill-rule="nonzero" d="M206.384 255.525c.384 1.383.844 2.69 1.688 3.842.383.538.92 1 1.38 1.383.154.077 1.61 1 1.61 1.076.308-1.23.538-2.459.921-3.688 1.304-4.534 2.454-9.144 3.758-13.677h-.076c.076-.077.076-.23.076-.307.997-3.766 2.148-7.53 3.145-11.296 0 .154 1.15 1.153 1.227 1.307.46.538.997 1.075 1.457 1.69a22.574 22.574 0 0 1 2.378 3.611c.153.308.307.615.537.846 1.15 2.074 2.07 4.533 2.607 7.3l2.915-10.528c-1.15-2.074-2.378-3.918-3.605-5.455v.154c-.23-.308-.383-.615-.613-.922a21.514 21.514 0 0 0-1.228-1.537 34.284 34.284 0 0 0-1.61-1.69c-.997-.923-1.994-1.537-3.068-2.306l-1.38-.922s0 .077-.077.154l.076-.154-1.227-1.536-5.215 6.915-.384-4.533-.613-.923-1.918-1.229-1.227 2.459c-.613 1.767-.997 2.612-1.687 3.304-.537.46-.92 3.458-1.534 3.919-.384 1.46-1.074 3.073-1.15 4.533-.077 1.306.383 2.305.613 3.534.23 1.384.46 2.69.614 4.073.153 1.844.23 3.611.46 5.455.076.922.153 1.921.383 2.843.23.846.537 1.537.767 2.305z"/>
        <path fill="#C7C6C5" fill-rule="nonzero" d="M212.505 232.477c.279.14.696-.139.696-.417.14-.418-.139-.696-.417-.696-.418-.139-.697 0-.836.417 0 .14.278.557.557.696zM211.827 236.175c.14-.278-.14-.696-.418-.696-.418-.139-.697.14-.836.418-.14.417.14.695.418.835.279 0 .697-.14.836-.557zM210.415 239.097c.14-.278-.139-.696-.418-.696-.418-.139-.696.14-.836.418.418.139.697.278 1.115.556.14-.14.14-.14.14-.278z"/>
        <path fill="#DAB59E" fill-rule="nonzero" d="M208.832 206.034c-.418.287-.975 0-1.115-.86.07 1.434 1.463 2.2 1.742 2.391 0 0-.07-2.2 1.044-2.679-.139-.287-1.602 0-1.671 1.148z"/>
        <path fill="#3C2D23" fill-rule="nonzero" d="M219.35 187.391h0zM227.569 188.574c.279.139.557.278.697.417-.14-.139-.418-.278-.697-.417zM220.534 187.391h.836-.836zM218.113 187.391c.14 0 .14 0 0 0 .14 0 .14 0 0 0zM216.825 187.443c0-.139-.14-.139 0 0-.14-.139-.14-.139 0 0-.14-.139 0-.139 0 0zM224.833 187.183c.868.208 1.664.556 2.388.904-1.592-.835-3.474-1.322-5.573-1.391 1.086.07 2.171.208 3.185.487z"/>
        <path fill="#49382E" fill-rule="nonzero" d="M208.97 193.009c-.229.385-.535.847-.764 1.232a37.34 37.34 0 0 0-2.755 5.543c-1.3 3.233-1.684 6.39-1.913 9.854a15.79 15.79 0 0 1 3.979 2.695c.23.231.536.462.918.462.306 0 .612-.385.612-.693.077-.539-.076-1.078-.076-1.54 0-.539.153-1.155.23-1.693 0-.077.382-1.463.459-1.463 0 0-4.592-.924-2.296-4.466.383-.693.995-.924 1.53-1 .613.307 1.378.615 2.296.923 2.908.77 5.51-7.468 5.51-7.468s10.713 3.619 10.1 15.398c0 .54-.076 1.001-.153 1.54-.23 1.77-.688 3.696-1.454 5.774-.459.462-.841.847-1.224 1.078-.153.154-.306.231-.383.308-.076.077-.153.077-.23.154-.688 1.925-1.606 4.003-2.6 6.005a9.59 9.59 0 0 0 .764-.23c0-.77.383-1.54 1.148-1.926.842-.384 1.76-.23 2.372.385 6.505-3.618 7.882-10.085 8.494-16.63.23-1.385.46-2.694.536-4.08.23-2.694.153-5.466-.536-8.084-.688-2.617-2.219-5.08-4.515-6.62-.153-.078-.23-.155-.382-.232-.077-.077-.153-.077-.23-.077-.765-.461-1.607-.77-2.525-1a12.261 12.261 0 0 0-3.367-.462H220.678c-.382 0-.765.077-1.147.154-1.301.154-2.296.693-3.52 1.231-1.454-.307-2.984.308-4.132 1.31-1.301 1.077-2.143 2.309-2.908 3.618z"/>
        <path fill="#DAB59E" fill-rule="nonzero" d="M214.683 227.576c-.929.178-1.942 0-2.786-.533l.337 4.174c0-.088 0-.088 2.449-3.64z"/>
        <path fill="#FFF" fill-rule="nonzero" d="M210.503 225.652v2.261l1.394 1.913-.299-3.304h-.1c-.298-.348-.696-.609-.995-.87zM210.238 225.765l.265-.3c-.265-.377-.53-.753-.73-1.204-.132.075-.265.075-.397.075.132.903 0 1.805-.266 2.707l1.128-1.278z"/>
        <path fill="#FDD4BE" fill-rule="nonzero" d="M204.288 236.812c-.474 0-1.027.085-1.502.17-.79.085-1.58 0-2.371.085-.396 0-.791.085-1.186.085-.317 0-.633 0-.95.085-.552 0-1.106.17-1.422.765a2.78 2.78 0 0 0-.237 1.105c-.08.51-.08 1.104.158 1.53.237.34.553.594.949.764 2.134 1.105 4.743 1.275 6.957.34.474-.17.87-.425 1.186-.85.237-.34.316-.68.395-1.104.079-.425.079-.935 0-1.36-.08-.425-.316-.935-.633-1.19-.474-.425-.79-.51-1.344-.425z"/>
        <path fill="#FBC2A6" fill-rule="nonzero" d="M199.585 236.58c.088.94.965 1.661 2.105 1.589 1.053-.072 1.93-.794 1.842-1.733v-.072c0-.505-.088-.938-.088-1.444-.088-.65.088-1.3-.614-1.732-.614-.433-1.49-.722-2.368-.506-.35.073-.701.29-.964.578-.264.36-.088.722 0 1.083 0 .289 0 .505.087.794v1.444z"/>
        <path fill="#FDD4BE" fill-rule="nonzero" d="M197.966 223.565v-.556a5.68 5.68 0 0 0-1.394 1.113l1.394-.14v-.417zM205.013 222.522v.139l1.311-.14c-.328-.278-.874-.695-1.311-.834v.14c-.11.277-.11.556 0 .695z"/>
        <path fill="#FDD4BE" fill-rule="nonzero" d="M199.51 222.263v.607l5.421-.304v-.152-.379-.076-.227-.076c-1.732-.304-3.916-.228-5.572.303v.076c.15.076.15.152.15.228z"/>
        <path fill="#554943" fill-rule="nonzero" d="M197.269 222.243v-.139.14zM197.966 224.122l1.393-.14v-.278-.695.974l-1.393.139v-.418-.556.974zM198.732 222.383c0-.14 0-.279-.14-.418.14.14.14.278.14.418zM205.628 222.104v0zM204.234 222.383v-.418.418zM204.234 221.687v0zM205.68 222.522v-.696c-.14.278-.14.557 0 .696z"/>
        <path fill="#FFF" fill-rule="nonzero" d="M199.334 233.067c-.073-.232-.29-.464-.435-.618a197.922 197.922 0 0 1-4.06-4.014c-1.304 1.158-2.247 3.01-3.19 4.554-.941 1.467-1.811 3.01-2.754 4.555-2.464 3.937-4.639 8.337-2.754 11.58 0 .076 0 .076.072.076.508.85 1.16 1.544 1.958 2.162v-.077l.072.077c.145.309.507.54.725.617.362.155.797.155 1.015-.077.145-.154.217-.309.29-.54.725-1.621 1.304-3.397 1.74-5.172.144-.54.29-1.158.362-1.699.217-1.003 1.232-2.161 1.74-3.087.362-.54.797-1.081.942-1.699.435-1.39 1.232-2.547 2.03-3.705l1.304-1.621c.58-.309 1.088-.695.943-1.312z"/>
        <path fill="#020202" fill-rule="nonzero" d="M201.1 227.74h.697-.697zM201.309 227.74h0zM199.916 227.74h.278-.278z"/>
        <path fill="#CF636B" fill-rule="nonzero" d="M214.185 266.765c-.199-.139-.398-.278-.597-.556l-.298.417 1.393.557a5.14 5.14 0 0 0-.498-.418z"/>
        <path fill="#CF636B" fill-rule="nonzero" d="M219.723 263.498c-.386-.301-.772-.527-1.158-.753l-6.177-2.935-2.394-1.128-.154-5.268-.618-9.633 1.776.602.154-.451 1.313-3.838c-.309-.075-.618-.226-.85-.301-.231-.075-.463-.226-.772-.301a2.336 2.336 0 0 1-.617-.301c-.078 0-.078-.076-.155-.076-.309-.15-.617-.3-.85-.451-.694-.376-1.234-.677-1.62-.978-.078-.076-.155-.076-.155-.076-.232-.15-.386-.225-.463-.3-.077 0-.077-.076-.077-.076h-.078a5.224 5.224 0 0 0-1.544-.451c0 .075.077.225.077.3v.527c0 .15-.077.226-.077.301 0 .076-.077.15-.077.301 0 0 0 .076-.077.076-.077.075-.077.15-.155.225 0 0 0 .076-.077.076-.077.075-.154.15-.232.3l-.463.452h-.077c-.154.15-.386.226-.54.301h-.078c-.231.076-.386.15-.617.226h-.078c-.231.075-.54.075-.772.15-1.93.151-3.629-1.053-3.706-2.633v-.301c-.463.075-.926.3-1.312.526 0 0-.464.226-1.004.602-.31.151-.618.452-.927.678a26.402 26.402 0 0 0-4.092 4.364l2.78 3.161.463.527.386-.376.695-.678c.077 1.13.309 2.183.309 3.312-.078 1.204-.232 2.483 0 3.687.386 1.58.154 3.236.077 4.892a13.341 13.341 0 0 0 0 2.483c.077.602.309 1.204.309 1.806l14.516 3.838c1.158.301 2.316.527 3.397.828.618.15 7.49 2.257 7.567 2.032.463-2.032-.155-3.914-1.776-5.268z"/>
        <path fill="#FDD4BE" fill-rule="nonzero" d="M195.388 256.748c.14.139.279.139.558.278.139 0 .278.14.417.14-.139 0-.278-.14-.417-.279-.28.14-.418 0-.558-.14zM193.926 255.078c.278.279.696.696 1.114.974-.418-.278-.697-.695-1.114-.974zM190.93 259.043c-.418-.417-.836-.834-1.253-1.39.417.556.835.973 1.253 1.39zM192.323 258.904c-.417-.278-.835-.695-1.253-1.113.418.418.836.696 1.253 1.113zM193.786 260.296c-.506-.279-.886-.696-1.393-1.113.38.417.887.695 1.393 1.113zM196.446 261.409h.126c-.506-.14-1.013-.418-1.393-.557.38.14.887.418 1.267.557zM195.04 257.304c-.418-.278-.697-.417-1.114-.695.278.278.696.556 1.114.695zM190.164 256.748c.14.139.14.278.279.417 0-.139-.14-.278-.279-.417zM195.18 260.435c-.465-.348-.93-.812-1.394-1.392.465.58.929 1.044 1.393 1.392zM201.518 262.522h-.14.14zM202.911 262.522h.14-.419.279zM196.572 256.748c.418.139.976.278 1.394.417-.558-.139-.976-.278-1.394-.417z"/>
        <path fill="#FDD4BE" fill-rule="nonzero" d="M197.966 257.235c-.507-.14-.887-.418-1.394-.557.38.279.887.418 1.394.557-.127 0 0 0 0 0zM202.563 258.348h.557-.557zM200.334 262.522h-.557.557zM198.732 258.348h-.14.14zM198.035 258.209c.418.139.836.139 1.254.278a2.785 2.785 0 0 0-1.254-.278zM201.5 262.522c-.139 0-.139 0 0 0-.139 0-.139 0 0 0zM198.94 261.2c-.139 0-.278 0-.557-.14.28.14.418.14.558.14zM197.617 261.2c-.278 0-.557-.14-.696-.14.139.14.418.14.696.14zM200.334 262.591c-.14 0-.418 0-.557-.139.139 0 .278 0 .557.14zM201.309 258.348h.279-.279zM204.63 257.9l.083 3.926c.662-.075 1.076-.15 1.16-.15 1.242-.152 1.987-1.21 1.821-2.342-.165-1.132-1.325-1.812-2.567-1.66h-.166c-.331.075-1.408.15-2.816.15h.165l2.32.076zM196.294 261.27c-.279 0-.557-.14-.836-.279.418.14.696.14.836.279zM222.68 223.07c-.688.381-1.032 1.066-1.032 1.904 0 .305.07.61.207.838l.068.076c.07.152.138.305.207.61.413 1.065 1.032 3.122 1.307 5.33.206 1.37.206 2.818-.069 4.113-.069.228-.137.533-.206.761-.069.305-.688 2.59-.826 2.894l.069-.076c.069-.076.62-2.133.62-2.285-.414 2.513-.345 1.752 0 1.98.068.153-.276.61-.207.686l.275.304c.413.61.688 1.295 2.545.076.138-.228.276-.533.413-.761a12.457 12.457 0 0 0 1.17-5.331c0-.685 0-1.447-.07-2.056-.137-1.828-.55-3.503-.962-4.874-.55-1.828-1.101-3.046-1.101-3.123-.069-.228-.206-.38-.344-.533-.482-.761-1.376-.914-2.064-.533z"/>
        <path fill="#EDD063" fill-rule="nonzero" d="M222.887 239.357l-.074-.07c-.148-.07-.221-.209-.369-.278-.295-.279-.59-.487-.884-.835-.074.07-.074.209-.148.278a5.079 5.079 0 0 1-1.253 1.53c-.147.14-.294.279-.516.418-.59.417-1.179.626-1.842.835-.295.07-.59.139-.959.139-.884.07-1.769.07-2.727-.14-.81-.138-1.548-.347-2.358-.625l-1.254 3.548c.664.208 1.4.417 2.138.626.958.208 2.064.347 3.096.347.516 0 .958 0 1.474-.07 1.548-.138 3.243-.625 4.644-1.6l.884-.625a9.772 9.772 0 0 0 1.474-1.53c.074-.07.148-.21.221-.279-.59-.487-1.031-1.113-1.547-1.67z"/>
        <path fill="#8DC085" fill-rule="nonzero" d="M206.394 237.06l.14.14c.138.14.556.278.835.557.14 0 .14.139.279.139-.279-.279-.697-.557-1.254-.835z"/>
        <path fill="#EDD063" fill-rule="nonzero" d="M199.581 245.785l-1.615-2.864 8.358-.573-3.582 8.348-3.161-4.91"/>
        <path fill="#DAB59E" fill-rule="nonzero" d="M203.906 252.087c1.912-.233 3.236-.543 3.236-.543 1.323-.232 2.206-1.55 1.912-2.946-.221-1.396-1.545-2.327-2.795-2.016 0 0-.662.155-1.691.31-.295.077-.662.077-1.03.155l.368 5.04z"/>
        <path fill="#FFF" fill-rule="nonzero" d="M203.46 251.917l-.309-4.625v-.28l-1.702.14c-.387-.35-.851-.56-1.47-.63h-.542c-.232 0-.464.07-.619.07-.077 0-.232.07-.31.07-.464.14-.928.35-1.47.49-.696.14-1.624.07-2.32.07-.852 0-1.703-.21-2.477-.42-.31-.07-.541-.21-.85-.14-.542.07-.465.49-.62.84-.155.561-.464 1.052-.696 1.542-.31.63-.62 1.331-.387 1.962.232.63.774.98 1.393 1.261.154.07 1.934.63 2.011.49.155 0 .31.07.465.07.541.07 1.083.07 1.702.07 1.16 0 2.321 0 3.482.351.773.21 1.625.42 2.244-.07.232-.21.386-.42.541-.7l2.012-.21-.077-.351z"/>
        <path fill="#D2A489" fill-rule="nonzero" d="M224.434 210.348c-.232-.363-.541-.726-.85-1.089 0 0-.31-.363-.465-.454-.31-.272-.774-.544-1.161-.726-.465-.272-.929-.544-1.393-.726-1.006-.453-2.013-.725-3.019-.998-.077 0-1.393-.181-1.393-.181H215.457c-.465 0-.387 0-.929.09-.232 0-.464.091-.697.182-.232.09-.541.272-.541.272.387.091 1.16.363 1.16.363l.62.182s.619.181.774.272c.696.272 1.47.454 2.167.726 1.083.363 2.244.726 3.328 1.089.619.181 1.78.544 1.78.544l.31.09 1.005.364z"/>
        <path fill="#49423D" fill-rule="nonzero" d="M221.648 210.092l1.194.256v-.051c.067-.103.067-.205.133-.36.133-.511.066-.921-.199-.973-.265-.05-.53.154-.796.462-.133.153-.199.307-.332.512.067.051 0 .102 0 .154zM214.683 208.479l1.194.478c0-.096.066-.192.066-.287.067-.383.133-.86.133-1.147 0-.67-.066-1.148-.265-1.339-.266-.095-.664.478-.93 1.339-.066.19-.132.382-.132.573 0 .191 0 .287-.066.383z"/>
        <path fill="#D2A489" fill-rule="nonzero" d="M208.832 206.034c-.418.287-.975 0-1.115-.86.07 1.434 1.463 2.2 1.742 2.391 0 0-.07-2.2 1.044-2.679-.139-.287-1.602 0-1.671 1.148z" opacity=".58"/>
        <path fill="#D0636A" fill-rule="nonzero" d="M221.648 213.603c0-.487-.074-.893-.372-1.38-.298-.325-.596-.65-1.044-.812-.447-.163-.82-.082-1.266.08-.224.082-.373.163-.522.326-.075-.244-.15-.406-.298-.569a2.24 2.24 0 0 0-1.043-.812c-.448-.162-.895-.08-1.267.082-1.267.568-1.193 2.03-1.118 3.328 0 .487.074 1.38.522 1.705.447.325.745.73.968 1.137l.895.487c.894.243 1.863.162 2.608-.406a4.035 4.035 0 0 0 1.043-.974c.447-.65.894-1.38.894-2.192z"/>
        <path fill="#FFF" fill-rule="nonzero" d="M217.512 215.747c1.31.386 2.62.077 3.378-.694.345-.308.62-.77.758-1.233l-.275-.077-3.447-1.079-2.896-.848-.276-.077a3.079 3.079 0 0 0 .138 1.773 4.287 4.287 0 0 0 2.62 2.235z"/>
        <path fill="#D1C8C2" fill-rule="nonzero" d="M216.685 224.26c.262-.347.523-.695.784-1.13l-1.045-.26c-.174.782-.348 1.13-.348 1.304l.61.087zM210.503 226.14v1.53l1.394 2.156-.266-3.27c-.066-.069-.132-.069-.199-.139l.2 2.644-.93-1.53V225.721l-.066-.07-.265.278-1.128 1.183c-.066.14-.066.278-.133.487l.332-.348 1.061-1.113zM218.862 225.767c0-.072 0-.072 0 0l-1.493-1.506c-.248.358-.497.645-.746.932-.746.86-1.327 1.65-1.907 2.295.083 0 .166.072.166.072l2.487-3.012 1.161 1.219-2.156 4.733-.58-2.223c0-.143-.083-.143-.166-.215-.166 0-.166.072-.249.072l-.912 1.29-1.824.861c.83-.932 1.492-1.793 1.99-2.438-.083 0-.249.071-.332.071-2.404 2.87-2.404 2.94-2.404 2.94l2.736-1.218.912-1.363c.249 1.004.415 1.65.498 2.08l.248.86c.415-.932.747-1.65 1.078-2.295.913-1.864 1.244-2.653 1.41-2.94.083-.143.083-.215.083-.215z"/>
        <path fill="#EDD063" fill-rule="nonzero" d="M196.544 261.162c.152 0 .229.073.381.073H197.154c.152 0 .305.074.381.074h.076c.229.074.534.074.763.148.076 0 .229 0 .305.074.152 0 .381.074.533.074.077 0 .23 0 .305.073.153 0 .305 0 .534.074h.305c.229 0 .458 0 .686.074H202.872l2.059-.074v-.074l-.076-3.838-2.059.073H200.814c-.458 0-.992-.073-1.449-.147h-.076c-.077 0-.229 0-.305-.074-.229-.074-.458-.074-.686-.148-.077 0-.153-.074-.305-.074-.23-.073-.534-.147-.763-.221-.076 0-.076 0-.152-.074H197c-.305-.074-.533-.147-.762-.295-.076 0-.153-.074-.229-.074-.076 0-.152-.074-.229-.074-.076-.074-.152-.074-.305-.147-.076-.074-.228-.074-.305-.148-.228-.148-.38-.222-.61-.37l-.076-.073c-.229-.148-.381-.295-.61-.517a5.256 5.256 0 0 1-1.144-1.624c-.076-.221-.152-.37-.228-.59-.077-.148-.077-.296-.153-.443-.152-.517-.152-1.034-.152-1.55.076-1.182.457-2.363 1.067-3.544.153-.296.305-.591.534-.886l-2.745-3.1c-.381.442-.686.959-.991 1.476a13.305 13.305 0 0 0-1.678 4.281c-.076.517-.152.96-.152 1.477-.076 1.107.076 2.288.457 3.47.153.369.23.664.382 1.033.305.59.61 1.181.99 1.624.077.074.077.148.153.222.077.074.077.147.153.221.229.296.457.517.686.739.076 0 .076.073.153.073.228.222.457.37.686.59l.076.075s.076 0 .076.074c.305.221.534.369.839.59.076 0 .076.074.152.074.61.37 1.22.664 1.83.886.077 0 .153.074.153.074.305.147.61.221.839.295h.076c.152.074.305.074.457.148-.152-.074 0 0 .153 0z"/>
        <path fill="#231F20" fill-rule="nonzero" d="M218.286 264.609c-1.128.163-2.66.736-4.432 2.21-.161.163-.403.327-.564.49.16.082.322.246.483.328l.484.245 8.22 2.292.564-2.046c-.403-.327-.806-.737-1.209-.982-1.289-1.064-2.498-1.964-3.546-2.537z"/>
        <path fill="#FDD2BC" fill-rule="nonzero" d="M198.732 223.635c0-.14-.14-.14-.14-.14s.14 0 .14.14z" opacity=".74"/>
        <path fill="#FDD4BE" fill-rule="nonzero" d="M212.258 221.407c-1.24-1.55-2.401-3.1-3.64-4.723-.93-1.255-1.937-2.436-3.254-3.321-1.937-1.255-4.338-1.476-6.662-1.624-.62 0-1.317 0-1.782.295-.62.37-.775 1.107-1.007 1.772a10.93 10.93 0 0 1-4.261 5.387c-.697.443-1.394.812-2.092 1.328-.62.517-1.162 1.181-1.317 1.993-.154.886.31 1.845 1.085 2.362.542.369 1.24.59 1.86.59.077 0 1.549-.148 1.549-.148s-.155 2.067.93 4.133c.619 1.255 1.703 2.583 3.563 3.542.542.296 1.084.443 1.626.59.31.075.62.148.853.222a7.904 7.904 0 0 0 3.486 0 6.88 6.88 0 0 0 2.246-1.033c.697-.443 1.24-.96 1.782-1.402.775-.664 1.86-2.14 2.479-3.764.077-.147.077-.295.155-.516.31-.886.387-1.772.31-2.657 0 0 .387-.074.464-.074.155 0 .155 0 .31.074.233.074.465.147.775.147.465 0 1.007-.073 1.317-.516.31-.37.31-.96.155-1.402-.155-.443-.465-.886-.775-1.255-.077.148-.155.074-.155 0z"/>
        <path fill="#000" fill-rule="nonzero" d="M204.917 227.092c0-.065-1.051-.065-2.344 0h-.97-.404H200.148c-.728.065-1.374.065-1.778.13-.243 0-.404.065-.404.065 0 .455.242.91.484 1.3.647.779 1.779 1.299 3.072 1.234h.08c.162 0 .324 0 .405-.065 1.859-.13 3.071-1.3 2.91-2.664z"/>
        <path fill="#EB5F70" fill-rule="nonzero" d="M204.931 228.792c-.727-.286-1.938-.4-3.311-.343-.888.057-1.696.172-2.261.286.646.686 1.776 1.143 3.068 1.086 1.05 0 1.939-.457 2.504-1.029z"/>
        <path fill="#FFF" fill-rule="nonzero" d="M204.931 227.948v-.835c-.52 0-1.56 0-2.6.14h-.372-.966c-.668.138-1.263.138-1.634.277v.835l5.572-.417z"/>
        <path fill="#FBC2A6" fill-rule="nonzero" d="M206.324 222.287a9.283 9.283 0 0 0-.865-.388c-.079-.065-.157-.065-.236-.065-2.202-.453-4.561-.518-6.685.065-.078 0-.157.065-.235.065-.315.129-.708.194-.944.388a1.71 1.71 0 0 0-.472.259l-.315.259c.865-.065 1.73-.065 2.674-.13s1.966-.13 2.91-.13c.472 0 .944-.064 1.416-.064.55 0 1.022-.13 1.572-.13h.394v.065l.786-.194z"/>
        <path fill="#FBC2A6" fill-rule="nonzero" d="M192.348 223.723c-.36.209-.988.156-1.348-.105.45.628 1.977.68 2.337.628 0 0-.63-.942.45-1.36-.27-.105-1.708.314-1.439.837z" opacity=".69"/>
        <path fill="#663E1F" fill-rule="nonzero" d="M215.4 226.42c-.075 0-.151-.074-.151-.074-.684-.296-1.064-1.111-1.064-1.852 0-.37.152-.815.304-1.185.228-.519.456-.963.76-1.482.228-.444.38-.889.532-1.407.38-1.26.456-2.667-.152-3.704a3.195 3.195 0 0 0-.988-1.037c-1.14-.667-2.585-.593-3.725.074-.076.074-.152.148-.228.148-.228-1.852-1.064-3.63-2.28-5.037-.912-1.11-2.053-2-3.345-2.518-.608-.297-1.292-.445-1.976-.593-3.116-.593-6.46.222-8.741 2.37-.836.741-1.444 1.704-1.977 2.667-.684 1.408-1.064 2.89-.988 4.445v.074c-.152-.148-.38-.222-.608-.37-.684-.297-1.444-.371-2.204-.297l-1.748 6.296c.152.223.228.445.38.593.532.815 1.14 1.556 1.292 2.519.152.963-.38 2.074-1.368 2.148 1.216.518 2.736.148 3.724-.741.684-.593 1.14-1.407 1.52-2.296-1.064 0-2.964-.445-2.356-2.89.38-2 2.965-1.036 2.965-1.036.152.222.38.444.608.666.228.297.836.667.836 1.037-.076-1.037-.304-2 .152-2.963.456-.888 1.14-1.63 1.9-2.37 1.14-1.26 2.356-2.667 2.204-4.296 1.293 1.63 3.117 2.74 5.17 3.185-.381-.74-.609-1.63-.533-2.445 0-.222.076-.518.304-.592.228-.074.532.074.684.222 1.14.963 2.204 2.148 2.965 3.482.38.666.76 1.333 1.064 2.074.38.889.532 1.852.76 2.815.076 0 .076-.075.152-.075l.076-.074c.152-.074.228-.222.38-.296.456-.222 1.14-.074 1.444.296.304.445.38.963.304 1.482-.076.222-.152.444-.304.593-.152.148-.304.222-.532.296.228.444.532.815.836 1.185l.076.074c.228.222.456.445.76.667h.076c.076.074.152.074.228.148.76.444 1.673.593 2.509.444.076 0 .228-.074.304-.074.228-.074.456-.148.608-.296-.38.074-.532.074-.608 0z"/>
        <g fill-rule="nonzero">
            <path fill="#FFF" d="M204.095 261.7c-.38-.073-.608-.51-.532-.874l.912-3.28c.076-.364.532-.583.912-.51l13.678 3.571c1.367.364 2.127 1.676 1.747 2.988-.38 1.312-1.747 2.04-3.115 1.676l-13.602-3.57z"/>
            <path fill="#FFF" d="M205.007 261.19c-.076.364-.532.583-.912.51l-21.732-5.757c-1.368-.365-2.128-1.676-1.748-2.988.38-1.312 1.748-2.04 3.116-1.676l21.732 5.757c.38.073.608.51.532.875"/>
            <path fill="#D8E5EB" d="M184.796 255.878l.944-3.303 19.567 5.146-.945 3.304z"/>
            <path fill="#596064" d="M218.913 261.336l-13.678-3.571-.912 3.28 13.678 3.57c.912.219 1.9-.291 2.204-1.166a1.766 1.766 0 0 0-1.292-2.113z"/>
            <path fill="#6D767B" d="M181.983 254.704c-.152 0-.228-.146-.152-.292l.532-1.894c0-.146.152-.219.304-.146.152 0 .228.146.152.291l-.532 1.895c0 .146-.152.219-.304.146zM183.199 254.995c-.152 0-.228-.145-.152-.291l.532-1.895c0-.146.152-.219.304-.146.151 0 .227.146.151.292l-.531 1.895c-.076.145-.228.218-.304.145z"/>
        </g>
        <path d="M-11-22h404v329.739H-11z"/>
        <g fill="#0091CD" fill-rule="nonzero">
            <path d="M156.087.87h15.91v70.017h-15.91zM218.9 43.87v27.093h-14.553v-3.805c-3.243 3.044-7.767 4.946-13.347 4.946-10.482 0-15.91-6.697-15.91-14.46 0-8.752 7.012-13.927 18.097-13.927h9.727v-.76c0-3.35-2.036-5.937-7.013-5.937-4.449 0-7.616 2.13-11.537 5.708l-7.39-10.198c6.033-6.165 12.292-9.361 20.888-9.361 12.593 0 21.038 6.85 21.038 20.7m-15.91 9.97v-.38h-7.466c-2.714 0-4.222 1.293-4.222 3.577 0 2.207 1.659 3.653 4.75 3.653 3.846-.076 6.938-2.588 6.938-6.85"/>
            <path d="M270.101 24.234l-21.717 49.164c-4.6 10.427-10.557 15.374-20.133 15.374-2.941 0-6.184-.457-8.898-1.142V74.16c2.187.075 3.846.152 5.354.152 3.695 0 6.862-.685 9.048-5.48l.755-1.598-16.891-43.152h16.89l8.899 26.256 9.878-26.256H270.1v.152zM204.196 4.98l1.056-4.11h-2.112l-.98 4.11zM200.803 10.155h2.111l.98-4.034h-2.035zM199.52 15.406h2.037l1.056-4.11h-2.036zM202.236.87h-20.21v.913l3.319 3.196h15.835zM192.659 11.296v.685l3.62 3.425h2.337l.98-4.11zM200.954 6.121H187.23v.609l3.62 3.425h9.048zM250.345 3.838h-1.433c-.754 0-1.13.152-1.659.913l-.528.837c.076-.837-.452-1.75-1.885-1.75h-1.357c-1.131 0-1.357.456-1.659.837l-.603.837.226-.99c.075-.304-.075-.608-.452-.608h-2.715l-.076.228c.227.076.378.229.378.457v.228l-2.413 9.59c-.076.304.075.608.452.608h2.715l.075-.228c-.302-.076-.377-.228-.377-.457 0-.076.075-.304.15-.608 0 0 1.509-5.708 1.509-5.86.377-1.447.754-1.675 1.508-1.751h.528c.754 0 .98.457.905.99-.076.304-1.885 7.305-1.885 7.305-.076.305.075.61.452.61h2.715l.075-.229c-.226-.076-.377-.228-.377-.457 0-.076.075-.304.075-.608l1.509-5.86c.377-1.447.754-1.675 1.508-1.751h.528c.754 0 .98.457.904.99 0 .075-1.81 7.305-1.81 7.305-.075.305.076.61.453.61h2.715l.075-.229c-.301-.076-.377-.228-.377-.457 0-.076.076-.304.15-.608 0 0 1.735-7.078 1.886-7.687.226-.685.15-2.207-1.885-2.207m-31.822-2.131s-2.036 8.143-3.016 11.872c-.075.457-.226.99.302 1.142 0 .076-.076.152-.076.304h-3.016c-.377 0-.528-.304-.452-.609l1.508-5.936h-4.148s-1.055 4.186-1.282 5.175c-.075.305-.15.533-.15.61 0 .228.15.38.377.532 0 .076-.076.152-.076.304h-3.016c-.377 0-.528-.304-.452-.608 0 0 2.111-8.144 3.016-11.873.075-.456.226-.913-.302-1.065 0-.076.076-.229.076-.305h3.016c.377 0 .528.305.452.61l-1.13 4.49h4.071s.603-2.436.98-3.73c.076-.304.151-.456.151-.609 0-.228-.15-.38-.377-.456 0-.076.076-.229.076-.305h3.016c.377-.076.528.229.452.457m18.852 2.207l-.377 1.446c-.15.609-.452.761-1.282.761h-1.056c-1.206 0-1.508.304-1.885 1.674l-1.508 5.937c-.075.304-.075.532-.15.608 0 .229.15.38.376.457l-.075.228h-2.715c-.377 0-.528-.304-.452-.609l2.413-9.589c0-.076.075-.152.075-.228 0-.228-.15-.38-.377-.457l.076-.228h2.639c.377 0 .528.304.452.609l-.226.99.83-1.066c.301-.457.377-.533 1.055-.533h2.187zm23.074 4.262h-3.77c.453-1.75 1.056-2.283 2.488-2.283 1.056 0 1.509.38 1.509 1.217-.076.229-.076.457-.227 1.066m-.904-4.338c-2.263 0-3.545.533-4.525 1.75-.98 1.294-1.96 4.414-2.036 6.47 0 1.217.453 2.206 1.282 2.587.603.304 1.508.456 3.016.456 1.66 0 2.64-.152 3.167-.456.377-.229.453-.38.754-1.522l.377-1.522h-.226c-.678.76-1.432 1.141-3.318 1.141-.904 0-1.432-.076-1.734-.304-.302-.229-.452-.533-.452-.99 0-.152.075-.456.075-.685l.226-.837h4.75c1.057 0 1.358-.076 1.584-.532.302-.533.604-1.98.604-2.816 0-1.903-1.056-2.74-3.544-2.74M225.46 8.176h-3.77c.452-1.75 1.055-2.283 2.488-2.283 1.056 0 1.508.38 1.508 1.217 0 .229-.075.457-.226 1.066m-.83-4.338c-2.262 0-3.544.533-4.524 1.75-.98 1.294-1.96 4.414-2.036 6.47 0 1.217.452 2.206 1.282 2.587.603.304 1.508.456 3.016.456 1.66 0 2.64-.152 3.167-.456.377-.229.453-.38.754-1.522l.377-1.522h-.226c-.679.76-1.433 1.141-3.318 1.141-.905 0-1.433-.076-1.734-.304-.302-.229-.453-.533-.453-.99 0-.152.076-.456.076-.685l.226-.837h4.75c1.056 0 1.358-.076 1.584-.532.302-.533.603-1.98.603-2.816-.075-1.903-1.055-2.74-3.544-2.74m48.487.076l-.377 1.294c-.151.609-.453.837-1.131.837h-2.036c-.905 0-1.207.076-1.433.304-.15.153-.302.457-.302.761 0 .305.151.457.679.61l2.036.608c1.357.38 1.81.837 1.81 1.903 0 1.065-.453 2.816-1.056 3.577-.603.76-1.357 1.065-2.488 1.065h-4.977c-.377 0-.528-.304-.453-.609l.604-2.511h.301c.15.533.528.76 1.66.76h1.96c.754 0 1.055-.075 1.282-.38a1.41 1.41 0 0 0 .377-.913c0-.457-.151-.609-1.132-.837l-1.885-.533c-1.055-.304-1.583-.837-1.583-1.75 0-.837.377-2.131.905-2.892.603-.99 1.432-1.37 2.94-1.37h4.299v.076zM140.855 35.041l-14.63 9.666c-1.055.684-1.884.228-1.884-1.066V23.93c0-1.294.83-1.75 1.885-1.066l14.629 9.666c.98.685.98 1.826 0 2.511M126.15 9.317h-17.117v61.57h15.308V58.253h1.81c15.458 0 27.221-9.817 27.221-24.506-.075-15.069-11.763-24.43-27.222-24.43"/>
        </g>
        <path fill="#000" fill-rule="nonzero" d="M197.982 222.87c-.086-.787.172-1.392.602-1.392.344 0 .775.605.775 1.331M204.948 222.87c-.087-.787.172-1.392.602-1.392.344 0 .774.605.774 1.331"/>
    </g>
</svg>
